<mxfile host="Electron" agent="Mozilla/5.0 (Windows NT 10.0; Win64; x64) AppleWebKit/537.36 (KHTML, like Gecko) draw.io/26.0.16 Chrome/132.0.6834.196 Electron/34.2.0 Safari/537.36" version="26.0.16" pages="8">
  <diagram name="MyceliumGrow" id="os-rR_QZ68PfVQjUXK_l">
    <mxGraphModel dx="1687" dy="984" grid="1" gridSize="10" guides="1" tooltips="1" connect="1" arrows="1" fold="1" page="1" pageScale="1" pageWidth="827" pageHeight="1169" math="0" shadow="0">
      <root>
        <mxCell id="0" />
        <mxCell id="1" parent="0" />
        <mxCell id="lVFUm1nHSPRErQTZZV4C-1" value="" style="shape=umlLifeline;perimeter=lifelinePerimeter;whiteSpace=wrap;html=1;container=1;dropTarget=0;collapsible=0;recursiveResize=0;outlineConnect=0;portConstraint=eastwest;newEdgeStyle={&quot;curved&quot;:0,&quot;rounded&quot;:0};size=0;" parent="1" vertex="1">
          <mxGeometry x="10" y="130" width="100" height="600" as="geometry" />
        </mxCell>
        <mxCell id="lVFUm1nHSPRErQTZZV4C-6" value="" style="html=1;points=[[0,0,0,0,5],[0,1,0,0,-5],[1,0,0,0,5],[1,1,0,0,-5]];perimeter=orthogonalPerimeter;outlineConnect=0;targetShapes=umlLifeline;portConstraint=eastwest;newEdgeStyle={&quot;curved&quot;:0,&quot;rounded&quot;:0};" parent="lVFUm1nHSPRErQTZZV4C-1" vertex="1">
          <mxGeometry x="45" y="10" width="10" height="560" as="geometry" />
        </mxCell>
        <mxCell id="lVFUm1nHSPRErQTZZV4C-2" value="Controller" style="shape=umlActor;verticalLabelPosition=bottom;verticalAlign=top;html=1;" parent="1" vertex="1">
          <mxGeometry x="45" y="40" width="30" height="60" as="geometry" />
        </mxCell>
        <mxCell id="lVFUm1nHSPRErQTZZV4C-3" value="m: Mycelium" style="shape=umlLifeline;perimeter=lifelinePerimeter;whiteSpace=wrap;html=1;container=1;dropTarget=0;collapsible=0;recursiveResize=0;outlineConnect=0;portConstraint=eastwest;newEdgeStyle={&quot;curved&quot;:0,&quot;rounded&quot;:0};size=40;" parent="1" vertex="1">
          <mxGeometry x="260" y="135" width="120" height="585" as="geometry" />
        </mxCell>
        <mxCell id="lVFUm1nHSPRErQTZZV4C-7" value="" style="html=1;points=[[0,0,0,0,5],[0,1,0,0,-5],[1,0,0,0,5],[1,1,0,0,-5]];perimeter=orthogonalPerimeter;outlineConnect=0;targetShapes=umlLifeline;portConstraint=eastwest;newEdgeStyle={&quot;curved&quot;:0,&quot;rounded&quot;:0};" parent="lVFUm1nHSPRErQTZZV4C-3" vertex="1">
          <mxGeometry x="55" y="60" width="10" height="500" as="geometry" />
        </mxCell>
        <mxCell id="lVFUm1nHSPRErQTZZV4C-4" value="Create" style="endArrow=open;endSize=12;dashed=1;html=1;rounded=0;" parent="1" source="lVFUm1nHSPRErQTZZV4C-6" edge="1">
          <mxGeometry x="-0.0256" width="160" relative="1" as="geometry">
            <mxPoint x="70" y="150" as="sourcePoint" />
            <mxPoint x="260" y="150" as="targetPoint" />
            <mxPoint as="offset" />
          </mxGeometry>
        </mxCell>
        <mxCell id="lVFUm1nHSPRErQTZZV4C-5" value="&lt;span data-end=&quot;171&quot; data-start=&quot;144&quot;&gt;mge: MyceliumGrowthEvaluator&lt;/span&gt; " style="shape=umlLifeline;perimeter=lifelinePerimeter;whiteSpace=wrap;html=1;container=1;dropTarget=0;collapsible=0;recursiveResize=0;outlineConnect=0;portConstraint=eastwest;newEdgeStyle={&quot;curved&quot;:0,&quot;rounded&quot;:0};size=40;" parent="1" vertex="1">
          <mxGeometry x="505" y="210" width="200" height="360" as="geometry" />
        </mxCell>
        <mxCell id="lVFUm1nHSPRErQTZZV4C-8" value="" style="html=1;points=[[0,0,0,0,5],[0,1,0,0,-5],[1,0,0,0,5],[1,1,0,0,-5]];perimeter=orthogonalPerimeter;outlineConnect=0;targetShapes=umlLifeline;portConstraint=eastwest;newEdgeStyle={&quot;curved&quot;:0,&quot;rounded&quot;:0};" parent="lVFUm1nHSPRErQTZZV4C-5" vertex="1">
          <mxGeometry x="95" y="70" width="10" height="250" as="geometry" />
        </mxCell>
        <mxCell id="lVFUm1nHSPRErQTZZV4C-9" value="visit(t)" style="html=1;verticalAlign=bottom;endArrow=block;curved=0;rounded=0;" parent="1" edge="1">
          <mxGeometry relative="1" as="geometry">
            <mxPoint x="325" y="290" as="sourcePoint" />
            <mxPoint x="599.9999999999998" y="290" as="targetPoint" />
          </mxGeometry>
        </mxCell>
        <mxCell id="lVFUm1nHSPRErQTZZV4C-11" value="&lt;span data-end=&quot;171&quot; data-start=&quot;144&quot;&gt;t: Tecton&lt;/span&gt; " style="shape=umlLifeline;perimeter=lifelinePerimeter;whiteSpace=wrap;html=1;container=1;dropTarget=0;collapsible=0;recursiveResize=0;outlineConnect=0;portConstraint=eastwest;newEdgeStyle={&quot;curved&quot;:0,&quot;rounded&quot;:0};size=40;" parent="1" vertex="1">
          <mxGeometry x="760" y="70" width="200" height="660" as="geometry" />
        </mxCell>
        <mxCell id="lVFUm1nHSPRErQTZZV4C-13" value="" style="html=1;points=[[0,0,0,0,5],[0,1,0,0,-5],[1,0,0,0,5],[1,1,0,0,-5]];perimeter=orthogonalPerimeter;outlineConnect=0;targetShapes=umlLifeline;portConstraint=eastwest;newEdgeStyle={&quot;curved&quot;:0,&quot;rounded&quot;:0};" parent="lVFUm1nHSPRErQTZZV4C-11" vertex="1">
          <mxGeometry x="95" y="230" width="10" height="390" as="geometry" />
        </mxCell>
        <mxCell id="lVFUm1nHSPRErQTZZV4C-14" value="accept(mge, m)" style="html=1;verticalAlign=bottom;endArrow=block;curved=0;rounded=0;" parent="1" source="lVFUm1nHSPRErQTZZV4C-8" target="lVFUm1nHSPRErQTZZV4C-13" edge="1">
          <mxGeometry relative="1" as="geometry">
            <mxPoint x="730" y="225" as="sourcePoint" />
            <Array as="points">
              <mxPoint x="740" y="310" />
            </Array>
          </mxGeometry>
        </mxCell>
        <mxCell id="lVFUm1nHSPRErQTZZV4C-15" value="" style="html=1;verticalAlign=bottom;endArrow=open;dashed=1;endSize=8;curved=0;rounded=0;" parent="1" edge="1">
          <mxGeometry relative="1" as="geometry">
            <mxPoint x="609.9999999999998" y="480" as="targetPoint" />
            <mxPoint x="854.9999999999998" y="480" as="sourcePoint" />
            <Array as="points">
              <mxPoint x="730" y="480" />
            </Array>
          </mxGeometry>
        </mxCell>
        <mxCell id="lVFUm1nHSPRErQTZZV4C-17" value="opt" style="shape=umlFrame;whiteSpace=wrap;html=1;pointerEvents=0;" parent="1" vertex="1">
          <mxGeometry x="240" y="330" width="730" height="110" as="geometry" />
        </mxCell>
        <mxCell id="lVFUm1nHSPRErQTZZV4C-19" value="[nÅ‘het]" style="text;html=1;align=center;verticalAlign=middle;resizable=0;points=[];autosize=1;" parent="1" vertex="1">
          <mxGeometry x="245" y="365" width="60" height="30" as="geometry" />
        </mxCell>
        <mxCell id="lVFUm1nHSPRErQTZZV4C-21" value="beGrown()" style="html=1;verticalAlign=bottom;endArrow=block;curved=0;rounded=0;" parent="1" edge="1">
          <mxGeometry x="-0.0377" relative="1" as="geometry">
            <mxPoint x="854.9999999999998" y="384.66" as="sourcePoint" />
            <mxPoint x="325" y="384.66" as="targetPoint" />
            <Array as="points">
              <mxPoint x="600" y="384.66" />
            </Array>
            <mxPoint as="offset" />
          </mxGeometry>
        </mxCell>
        <mxCell id="lVFUm1nHSPRErQTZZV4C-22" value="" style="html=1;verticalAlign=bottom;endArrow=open;dashed=1;endSize=8;curved=0;rounded=0;" parent="1" edge="1">
          <mxGeometry relative="1" as="geometry">
            <mxPoint x="854.9999999999998" y="404.66" as="targetPoint" />
            <mxPoint x="325" y="404.66" as="sourcePoint" />
            <Array as="points">
              <mxPoint x="590" y="404.66" />
            </Array>
          </mxGeometry>
        </mxCell>
        <mxCell id="lVFUm1nHSPRErQTZZV4C-26" value="" style="html=1;verticalAlign=bottom;endArrow=open;dashed=1;endSize=8;curved=0;rounded=0;" parent="1" edge="1">
          <mxGeometry relative="1" as="geometry">
            <mxPoint x="325" y="510" as="targetPoint" />
            <mxPoint x="599.9999999999998" y="510" as="sourcePoint" />
          </mxGeometry>
        </mxCell>
        <mxCell id="lVFUm1nHSPRErQTZZV4C-28" value="Create" style="endArrow=open;endSize=12;dashed=1;html=1;rounded=0;" parent="1" source="lVFUm1nHSPRErQTZZV4C-7" edge="1">
          <mxGeometry x="-0.0256" width="160" relative="1" as="geometry">
            <mxPoint x="322" y="230" as="sourcePoint" />
            <mxPoint x="506" y="230" as="targetPoint" />
            <mxPoint as="offset" />
          </mxGeometry>
        </mxCell>
        <mxCell id="lVFUm1nHSPRErQTZZV4C-29" value="" style="shape=umlDestroy;whiteSpace=wrap;html=1;strokeWidth=3;targetShapes=umlLifeline;" parent="1" vertex="1">
          <mxGeometry x="590" y="555" width="30" height="30" as="geometry" />
        </mxCell>
        <mxCell id="lVFUm1nHSPRErQTZZV4C-24" value="delete()" style="html=1;verticalAlign=bottom;endArrow=block;curved=0;rounded=0;" parent="1" edge="1">
          <mxGeometry x="-0.0377" relative="1" as="geometry">
            <mxPoint x="855" y="630" as="sourcePoint" />
            <mxPoint x="325" y="630" as="targetPoint" />
            <Array as="points">
              <mxPoint x="600" y="630" />
            </Array>
            <mxPoint as="offset" />
          </mxGeometry>
        </mxCell>
        <mxCell id="lVFUm1nHSPRErQTZZV4C-25" value="" style="html=1;verticalAlign=bottom;endArrow=open;dashed=1;endSize=8;curved=0;rounded=0;" parent="1" edge="1">
          <mxGeometry relative="1" as="geometry">
            <mxPoint x="854.9999999999998" y="660" as="targetPoint" />
            <mxPoint x="325" y="660" as="sourcePoint" />
            <Array as="points">
              <mxPoint x="600" y="660" />
            </Array>
          </mxGeometry>
        </mxCell>
        <mxCell id="lVFUm1nHSPRErQTZZV4C-23" value="" style="shape=umlDestroy;whiteSpace=wrap;html=1;strokeWidth=3;targetShapes=umlLifeline;" parent="1" vertex="1">
          <mxGeometry x="305" y="710" width="30" height="30" as="geometry" />
        </mxCell>
        <mxCell id="aKTHg6ExhLx2GfZnhrRb-1" value="Ha nem nÅ‘het, instant, ha nÅ‘het, valamikor az Ã©letciklusa vÃ©gÃ©n tÃ¶rlÅ‘dik" style="shape=note;size=20;whiteSpace=wrap;html=1;" vertex="1" parent="1">
          <mxGeometry x="950" y="600" width="180" height="100" as="geometry" />
        </mxCell>
        <mxCell id="1KxoVsYjL2CxhF_v484l-1" value="m megkapja a konstruktorÃ¡ban a t tectont ahova nÅ‘ni szeretne" style="shape=note;size=20;whiteSpace=wrap;html=1;" vertex="1" parent="1">
          <mxGeometry x="204.5" y="30" width="231" height="80" as="geometry" />
        </mxCell>
        <mxCell id="ZySD1Oni84O6KQRZwVa7-1" value="mge megkapja konstruktorÃ¡ban az m Mycelium-ot amihez tartozik" style="shape=note;size=20;whiteSpace=wrap;html=1;" vertex="1" parent="1">
          <mxGeometry x="512.5" y="120" width="185" height="80" as="geometry" />
        </mxCell>
      </root>
    </mxGraphModel>
  </diagram>
  <diagram name="MushroomBodyGrow" id="AVvhuX0Fgh2cvZuT2BZJ">
    <mxGraphModel dx="1434" dy="836" grid="1" gridSize="10" guides="1" tooltips="1" connect="1" arrows="1" fold="1" page="1" pageScale="1" pageWidth="827" pageHeight="1169" math="0" shadow="0">
      <root>
        <mxCell id="8-Ozfsdct8C57TaCM86q-0" />
        <mxCell id="8-Ozfsdct8C57TaCM86q-1" parent="8-Ozfsdct8C57TaCM86q-0" />
        <mxCell id="8-Ozfsdct8C57TaCM86q-2" value="" style="shape=umlLifeline;perimeter=lifelinePerimeter;whiteSpace=wrap;html=1;container=1;dropTarget=0;collapsible=0;recursiveResize=0;outlineConnect=0;portConstraint=eastwest;newEdgeStyle={&quot;curved&quot;:0,&quot;rounded&quot;:0};size=0;" vertex="1" parent="8-Ozfsdct8C57TaCM86q-1">
          <mxGeometry x="10" y="130" width="100" height="600" as="geometry" />
        </mxCell>
        <mxCell id="8-Ozfsdct8C57TaCM86q-3" value="" style="html=1;points=[[0,0,0,0,5],[0,1,0,0,-5],[1,0,0,0,5],[1,1,0,0,-5]];perimeter=orthogonalPerimeter;outlineConnect=0;targetShapes=umlLifeline;portConstraint=eastwest;newEdgeStyle={&quot;curved&quot;:0,&quot;rounded&quot;:0};" vertex="1" parent="8-Ozfsdct8C57TaCM86q-2">
          <mxGeometry x="45" y="10" width="10" height="560" as="geometry" />
        </mxCell>
        <mxCell id="8-Ozfsdct8C57TaCM86q-4" value="Controller" style="shape=umlActor;verticalLabelPosition=bottom;verticalAlign=top;html=1;" vertex="1" parent="8-Ozfsdct8C57TaCM86q-1">
          <mxGeometry x="45" y="40" width="30" height="60" as="geometry" />
        </mxCell>
        <mxCell id="8-Ozfsdct8C57TaCM86q-5" value="mb: MushroomBody" style="shape=umlLifeline;perimeter=lifelinePerimeter;whiteSpace=wrap;html=1;container=1;dropTarget=0;collapsible=0;recursiveResize=0;outlineConnect=0;portConstraint=eastwest;newEdgeStyle={&quot;curved&quot;:0,&quot;rounded&quot;:0};size=40;" vertex="1" parent="8-Ozfsdct8C57TaCM86q-1">
          <mxGeometry x="260" y="135" width="120" height="585" as="geometry" />
        </mxCell>
        <mxCell id="8-Ozfsdct8C57TaCM86q-6" value="" style="html=1;points=[[0,0,0,0,5],[0,1,0,0,-5],[1,0,0,0,5],[1,1,0,0,-5]];perimeter=orthogonalPerimeter;outlineConnect=0;targetShapes=umlLifeline;portConstraint=eastwest;newEdgeStyle={&quot;curved&quot;:0,&quot;rounded&quot;:0};" vertex="1" parent="8-Ozfsdct8C57TaCM86q-5">
          <mxGeometry x="55" y="60" width="10" height="500" as="geometry" />
        </mxCell>
        <mxCell id="8-Ozfsdct8C57TaCM86q-7" value="Create" style="endArrow=open;endSize=12;dashed=1;html=1;rounded=0;" edge="1" parent="8-Ozfsdct8C57TaCM86q-1" source="8-Ozfsdct8C57TaCM86q-3">
          <mxGeometry x="-0.0256" width="160" relative="1" as="geometry">
            <mxPoint x="70" y="150" as="sourcePoint" />
            <mxPoint x="260" y="150" as="targetPoint" />
            <mxPoint as="offset" />
          </mxGeometry>
        </mxCell>
        <mxCell id="8-Ozfsdct8C57TaCM86q-8" value="&lt;span data-end=&quot;171&quot; data-start=&quot;144&quot;&gt;mbge: MushroomBodyGrowthEvaluator&lt;/span&gt; " style="shape=umlLifeline;perimeter=lifelinePerimeter;whiteSpace=wrap;html=1;container=1;dropTarget=0;collapsible=0;recursiveResize=0;outlineConnect=0;portConstraint=eastwest;newEdgeStyle={&quot;curved&quot;:0,&quot;rounded&quot;:0};size=40;" vertex="1" parent="8-Ozfsdct8C57TaCM86q-1">
          <mxGeometry x="505" y="210" width="200" height="360" as="geometry" />
        </mxCell>
        <mxCell id="8-Ozfsdct8C57TaCM86q-9" value="" style="html=1;points=[[0,0,0,0,5],[0,1,0,0,-5],[1,0,0,0,5],[1,1,0,0,-5]];perimeter=orthogonalPerimeter;outlineConnect=0;targetShapes=umlLifeline;portConstraint=eastwest;newEdgeStyle={&quot;curved&quot;:0,&quot;rounded&quot;:0};" vertex="1" parent="8-Ozfsdct8C57TaCM86q-8">
          <mxGeometry x="95" y="70" width="10" height="260" as="geometry" />
        </mxCell>
        <mxCell id="8-Ozfsdct8C57TaCM86q-10" value="visit(t)" style="html=1;verticalAlign=bottom;endArrow=block;curved=0;rounded=0;" edge="1" parent="8-Ozfsdct8C57TaCM86q-1">
          <mxGeometry relative="1" as="geometry">
            <mxPoint x="325" y="290" as="sourcePoint" />
            <mxPoint x="599.9999999999998" y="290" as="targetPoint" />
          </mxGeometry>
        </mxCell>
        <mxCell id="8-Ozfsdct8C57TaCM86q-11" value="&lt;span data-end=&quot;171&quot; data-start=&quot;144&quot;&gt;t: Tecton&lt;/span&gt; " style="shape=umlLifeline;perimeter=lifelinePerimeter;whiteSpace=wrap;html=1;container=1;dropTarget=0;collapsible=0;recursiveResize=0;outlineConnect=0;portConstraint=eastwest;newEdgeStyle={&quot;curved&quot;:0,&quot;rounded&quot;:0};size=40;" vertex="1" parent="8-Ozfsdct8C57TaCM86q-1">
          <mxGeometry x="760" y="70" width="200" height="660" as="geometry" />
        </mxCell>
        <mxCell id="8-Ozfsdct8C57TaCM86q-12" value="" style="html=1;points=[[0,0,0,0,5],[0,1,0,0,-5],[1,0,0,0,5],[1,1,0,0,-5]];perimeter=orthogonalPerimeter;outlineConnect=0;targetShapes=umlLifeline;portConstraint=eastwest;newEdgeStyle={&quot;curved&quot;:0,&quot;rounded&quot;:0};" vertex="1" parent="8-Ozfsdct8C57TaCM86q-11">
          <mxGeometry x="95" y="230" width="10" height="390" as="geometry" />
        </mxCell>
        <mxCell id="8-Ozfsdct8C57TaCM86q-13" value="accept(mbge, mb)" style="html=1;verticalAlign=bottom;endArrow=block;curved=0;rounded=0;" edge="1" parent="8-Ozfsdct8C57TaCM86q-1" source="8-Ozfsdct8C57TaCM86q-9" target="8-Ozfsdct8C57TaCM86q-12">
          <mxGeometry relative="1" as="geometry">
            <mxPoint x="730" y="225" as="sourcePoint" />
            <Array as="points">
              <mxPoint x="740" y="310" />
            </Array>
          </mxGeometry>
        </mxCell>
        <mxCell id="8-Ozfsdct8C57TaCM86q-14" value="" style="html=1;verticalAlign=bottom;endArrow=open;dashed=1;endSize=8;curved=0;rounded=0;" edge="1" parent="8-Ozfsdct8C57TaCM86q-1">
          <mxGeometry relative="1" as="geometry">
            <mxPoint x="609.9999999999998" y="480" as="targetPoint" />
            <mxPoint x="854.9999999999998" y="480" as="sourcePoint" />
            <Array as="points">
              <mxPoint x="730" y="480" />
            </Array>
          </mxGeometry>
        </mxCell>
        <mxCell id="8-Ozfsdct8C57TaCM86q-15" value="opt" style="shape=umlFrame;whiteSpace=wrap;html=1;pointerEvents=0;" vertex="1" parent="8-Ozfsdct8C57TaCM86q-1">
          <mxGeometry x="240" y="330" width="730" height="110" as="geometry" />
        </mxCell>
        <mxCell id="8-Ozfsdct8C57TaCM86q-16" value="[nÅ‘het]" style="text;html=1;align=center;verticalAlign=middle;resizable=0;points=[];autosize=1;" vertex="1" parent="8-Ozfsdct8C57TaCM86q-1">
          <mxGeometry x="245" y="365" width="60" height="30" as="geometry" />
        </mxCell>
        <mxCell id="8-Ozfsdct8C57TaCM86q-17" value="beGrown()" style="html=1;verticalAlign=bottom;endArrow=block;curved=0;rounded=0;" edge="1" parent="8-Ozfsdct8C57TaCM86q-1">
          <mxGeometry x="-0.0377" relative="1" as="geometry">
            <mxPoint x="854.9999999999998" y="384.66" as="sourcePoint" />
            <mxPoint x="325" y="384.66" as="targetPoint" />
            <Array as="points">
              <mxPoint x="600" y="384.66" />
            </Array>
            <mxPoint as="offset" />
          </mxGeometry>
        </mxCell>
        <mxCell id="8-Ozfsdct8C57TaCM86q-18" value="" style="html=1;verticalAlign=bottom;endArrow=open;dashed=1;endSize=8;curved=0;rounded=0;" edge="1" parent="8-Ozfsdct8C57TaCM86q-1">
          <mxGeometry relative="1" as="geometry">
            <mxPoint x="854.9999999999998" y="404.66" as="targetPoint" />
            <mxPoint x="325" y="404.66" as="sourcePoint" />
            <Array as="points">
              <mxPoint x="590" y="404.66" />
            </Array>
          </mxGeometry>
        </mxCell>
        <mxCell id="8-Ozfsdct8C57TaCM86q-19" value="" style="html=1;verticalAlign=bottom;endArrow=open;dashed=1;endSize=8;curved=0;rounded=0;" edge="1" parent="8-Ozfsdct8C57TaCM86q-1">
          <mxGeometry relative="1" as="geometry">
            <mxPoint x="325" y="510" as="targetPoint" />
            <mxPoint x="599.9999999999998" y="510" as="sourcePoint" />
          </mxGeometry>
        </mxCell>
        <mxCell id="8-Ozfsdct8C57TaCM86q-20" value="Create" style="endArrow=open;endSize=12;dashed=1;html=1;rounded=0;" edge="1" parent="8-Ozfsdct8C57TaCM86q-1" source="8-Ozfsdct8C57TaCM86q-6">
          <mxGeometry x="-0.0256" width="160" relative="1" as="geometry">
            <mxPoint x="322" y="230" as="sourcePoint" />
            <mxPoint x="506" y="230" as="targetPoint" />
            <mxPoint as="offset" />
          </mxGeometry>
        </mxCell>
        <mxCell id="8-Ozfsdct8C57TaCM86q-21" value="" style="shape=umlDestroy;whiteSpace=wrap;html=1;strokeWidth=3;targetShapes=umlLifeline;" vertex="1" parent="8-Ozfsdct8C57TaCM86q-1">
          <mxGeometry x="590" y="555" width="30" height="30" as="geometry" />
        </mxCell>
        <mxCell id="8-Ozfsdct8C57TaCM86q-22" value="delete()" style="html=1;verticalAlign=bottom;endArrow=block;curved=0;rounded=0;" edge="1" parent="8-Ozfsdct8C57TaCM86q-1">
          <mxGeometry x="-0.0377" relative="1" as="geometry">
            <mxPoint x="855" y="630" as="sourcePoint" />
            <mxPoint x="325" y="630" as="targetPoint" />
            <Array as="points">
              <mxPoint x="600" y="630" />
            </Array>
            <mxPoint as="offset" />
          </mxGeometry>
        </mxCell>
        <mxCell id="8-Ozfsdct8C57TaCM86q-23" value="" style="html=1;verticalAlign=bottom;endArrow=open;dashed=1;endSize=8;curved=0;rounded=0;" edge="1" parent="8-Ozfsdct8C57TaCM86q-1">
          <mxGeometry relative="1" as="geometry">
            <mxPoint x="854.9999999999998" y="660" as="targetPoint" />
            <mxPoint x="325" y="660" as="sourcePoint" />
            <Array as="points">
              <mxPoint x="600" y="660" />
            </Array>
          </mxGeometry>
        </mxCell>
        <mxCell id="8-Ozfsdct8C57TaCM86q-24" value="" style="shape=umlDestroy;whiteSpace=wrap;html=1;strokeWidth=3;targetShapes=umlLifeline;" vertex="1" parent="8-Ozfsdct8C57TaCM86q-1">
          <mxGeometry x="305" y="710" width="30" height="30" as="geometry" />
        </mxCell>
        <mxCell id="8-Ozfsdct8C57TaCM86q-25" value="Ha nem nÅ‘het, instant, ha nÅ‘het, valamikor az Ã©letciklusa vÃ©gÃ©n tÃ¶rlÅ‘dik" style="shape=note;size=20;whiteSpace=wrap;html=1;" vertex="1" parent="8-Ozfsdct8C57TaCM86q-1">
          <mxGeometry x="950" y="600" width="180" height="100" as="geometry" />
        </mxCell>
        <mxCell id="SA7R8VRZ1dKbGyUjFMgK-0" value="mb megkapja a konstruktorÃ¡ban a t tectont ahova nÅ‘ni szeretne" style="shape=note;size=20;whiteSpace=wrap;html=1;" vertex="1" parent="8-Ozfsdct8C57TaCM86q-1">
          <mxGeometry x="196.25" y="30" width="247.5" height="80" as="geometry" />
        </mxCell>
        <mxCell id="SA7R8VRZ1dKbGyUjFMgK-1" value="mbge megkapja konstruktorÃ¡ban az mb MushroomBody-t amihez tartozik" style="shape=note;size=20;whiteSpace=wrap;html=1;" vertex="1" parent="8-Ozfsdct8C57TaCM86q-1">
          <mxGeometry x="512.5" y="120" width="185" height="80" as="geometry" />
        </mxCell>
      </root>
    </mxGraphModel>
  </diagram>
  <diagram id="di32PcxvHkJ_G0L5s2Sh" name="MushroomBodyEject">
    <mxGraphModel dx="1434" dy="836" grid="1" gridSize="10" guides="1" tooltips="1" connect="1" arrows="1" fold="1" page="1" pageScale="1" pageWidth="827" pageHeight="1169" math="0" shadow="0">
      <root>
        <mxCell id="0" />
        <mxCell id="1" parent="0" />
        <mxCell id="OIX6oTfRHXlpQNTjHoEB-1" value="mb: Mushroombody" style="shape=umlLifeline;perimeter=lifelinePerimeter;whiteSpace=wrap;html=1;container=1;dropTarget=0;collapsible=0;recursiveResize=0;outlineConnect=0;portConstraint=eastwest;newEdgeStyle={&quot;curved&quot;:0,&quot;rounded&quot;:0};" parent="1" vertex="1">
          <mxGeometry x="60" y="40" width="120" height="400" as="geometry" />
        </mxCell>
        <mxCell id="OIX6oTfRHXlpQNTjHoEB-12" value="" style="html=1;points=[[0,0,0,0,5],[0,1,0,0,-5],[1,0,0,0,5],[1,1,0,0,-5]];perimeter=orthogonalPerimeter;outlineConnect=0;targetShapes=umlLifeline;portConstraint=eastwest;newEdgeStyle={&quot;curved&quot;:0,&quot;rounded&quot;:0};" parent="OIX6oTfRHXlpQNTjHoEB-1" vertex="1">
          <mxGeometry x="55" y="70" width="10" height="270" as="geometry" />
        </mxCell>
        <mxCell id="OIX6oTfRHXlpQNTjHoEB-2" value="target: Tecton" style="shape=umlLifeline;perimeter=lifelinePerimeter;whiteSpace=wrap;html=1;container=1;dropTarget=0;collapsible=0;recursiveResize=0;outlineConnect=0;portConstraint=eastwest;newEdgeStyle={&quot;curved&quot;:0,&quot;rounded&quot;:0};" parent="1" vertex="1">
          <mxGeometry x="430" y="40" width="120" height="400" as="geometry" />
        </mxCell>
        <mxCell id="OIX6oTfRHXlpQNTjHoEB-3" value="location: Tecton" style="shape=umlLifeline;perimeter=lifelinePerimeter;whiteSpace=wrap;html=1;container=1;dropTarget=0;collapsible=0;recursiveResize=0;outlineConnect=0;portConstraint=eastwest;newEdgeStyle={&quot;curved&quot;:0,&quot;rounded&quot;:0};" parent="1" vertex="1">
          <mxGeometry x="250" y="40" width="120" height="400" as="geometry" />
        </mxCell>
        <mxCell id="OIX6oTfRHXlpQNTjHoEB-4" value="" style="html=1;points=[[0,0,0,0,5],[0,1,0,0,-5],[1,0,0,0,5],[1,1,0,0,-5]];perimeter=orthogonalPerimeter;outlineConnect=0;targetShapes=umlLifeline;portConstraint=eastwest;newEdgeStyle={&quot;curved&quot;:0,&quot;rounded&quot;:0};" parent="OIX6oTfRHXlpQNTjHoEB-3" vertex="1">
          <mxGeometry x="55" y="80" width="10" height="80" as="geometry" />
        </mxCell>
        <mxCell id="OIX6oTfRHXlpQNTjHoEB-5" value="distance(target)" style="html=1;verticalAlign=bottom;endArrow=block;curved=0;rounded=0;entryX=0;entryY=0;entryDx=0;entryDy=5;" parent="1" source="OIX6oTfRHXlpQNTjHoEB-12" target="OIX6oTfRHXlpQNTjHoEB-4" edge="1">
          <mxGeometry relative="1" as="geometry">
            <mxPoint x="120" y="125" as="sourcePoint" />
          </mxGeometry>
        </mxCell>
        <mxCell id="OIX6oTfRHXlpQNTjHoEB-6" value="" style="html=1;verticalAlign=bottom;endArrow=open;dashed=1;endSize=8;curved=0;rounded=0;exitX=0;exitY=1;exitDx=0;exitDy=-5;" parent="1" source="OIX6oTfRHXlpQNTjHoEB-4" target="OIX6oTfRHXlpQNTjHoEB-12" edge="1">
          <mxGeometry relative="1" as="geometry">
            <mxPoint x="120" y="195" as="targetPoint" />
          </mxGeometry>
        </mxCell>
        <mxCell id="OIX6oTfRHXlpQNTjHoEB-7" value="&lt;div&gt;opt&lt;/div&gt;" style="shape=umlFrame;whiteSpace=wrap;html=1;pointerEvents=0;" parent="1" vertex="1">
          <mxGeometry x="30" y="220" width="530" height="130" as="geometry" />
        </mxCell>
        <mxCell id="OIX6oTfRHXlpQNTjHoEB-8" value="[elÃ©g kÃ¶zel van]" style="text;html=1;align=center;verticalAlign=middle;resizable=0;points=[];autosize=1;strokeColor=none;fillColor=none;" parent="1" vertex="1">
          <mxGeometry x="20" y="250" width="110" height="30" as="geometry" />
        </mxCell>
        <mxCell id="OIX6oTfRHXlpQNTjHoEB-9" value="" style="html=1;points=[[0,0,0,0,5],[0,1,0,0,-5],[1,0,0,0,5],[1,1,0,0,-5]];perimeter=orthogonalPerimeter;outlineConnect=0;targetShapes=umlLifeline;portConstraint=eastwest;newEdgeStyle={&quot;curved&quot;:0,&quot;rounded&quot;:0};" parent="1" vertex="1">
          <mxGeometry x="485" y="255" width="10" height="80" as="geometry" />
        </mxCell>
        <mxCell id="OIX6oTfRHXlpQNTjHoEB-10" value="transferSpores(mushroomSpores)" style="html=1;verticalAlign=bottom;endArrow=block;curved=0;rounded=0;entryX=0;entryY=0;entryDx=0;entryDy=5;" parent="1" source="OIX6oTfRHXlpQNTjHoEB-12" target="OIX6oTfRHXlpQNTjHoEB-9" edge="1">
          <mxGeometry relative="1" as="geometry">
            <mxPoint x="120" y="260" as="sourcePoint" />
          </mxGeometry>
        </mxCell>
        <mxCell id="OIX6oTfRHXlpQNTjHoEB-11" value="" style="html=1;verticalAlign=bottom;endArrow=open;dashed=1;endSize=8;curved=0;rounded=0;exitX=0;exitY=1;exitDx=0;exitDy=-5;" parent="1" source="OIX6oTfRHXlpQNTjHoEB-9" target="OIX6oTfRHXlpQNTjHoEB-12" edge="1">
          <mxGeometry x="0.0027" relative="1" as="geometry">
            <mxPoint x="120" y="330" as="targetPoint" />
            <mxPoint as="offset" />
          </mxGeometry>
        </mxCell>
        <mxCell id="OIX6oTfRHXlpQNTjHoEB-13" value="ejectSpores(target)" style="html=1;verticalAlign=bottom;startArrow=oval;startFill=1;endArrow=block;startSize=8;curved=0;rounded=0;" parent="1" edge="1">
          <mxGeometry width="60" relative="1" as="geometry">
            <mxPoint x="10" y="130" as="sourcePoint" />
            <mxPoint x="115" y="130" as="targetPoint" />
          </mxGeometry>
        </mxCell>
        <mxCell id="S1HXESxl8Q9jV2bLnWlP-1" value="ElÃ©g kÃ¶zel van feltÃ©tel fÃ¼gg a kilÃ¶vÃ©sek szÃ¡mÃ¡tÃ³l: ha nem az utolsÃ³ kilÃ¶vÃ©se, akkor a distance Ã©rtÃ©ke 1 kell legyen, ha utolsÃ³ kilÃ¶vÃ©se, akkor 1 vagy 2" style="shape=note;size=20;whiteSpace=wrap;html=1;" vertex="1" parent="1">
          <mxGeometry x="590" y="240" width="210" height="100" as="geometry" />
        </mxCell>
      </root>
    </mxGraphModel>
  </diagram>
  <diagram id="n35192QQ9PDpCi8JAzE9" name="EatStunSpore">
    <mxGraphModel dx="1434" dy="836" grid="1" gridSize="10" guides="1" tooltips="1" connect="1" arrows="1" fold="1" page="1" pageScale="1" pageWidth="827" pageHeight="1169" math="0" shadow="0">
      <root>
        <mxCell id="0" />
        <mxCell id="1" parent="0" />
        <mxCell id="e4eeKu0tLdhdqPBlOCCp-1" value="i: Insect" style="shape=umlLifeline;perimeter=lifelinePerimeter;whiteSpace=wrap;html=1;container=1;dropTarget=0;collapsible=0;recursiveResize=0;outlineConnect=0;portConstraint=eastwest;newEdgeStyle={&quot;curved&quot;:0,&quot;rounded&quot;:0};" parent="1" vertex="1">
          <mxGeometry x="80" y="40" width="100" height="280" as="geometry" />
        </mxCell>
        <mxCell id="e4eeKu0tLdhdqPBlOCCp-14" value="" style="html=1;points=[[0,0,0,0,5],[0,1,0,0,-5],[1,0,0,0,5],[1,1,0,0,-5]];perimeter=orthogonalPerimeter;outlineConnect=0;targetShapes=umlLifeline;portConstraint=eastwest;newEdgeStyle={&quot;curved&quot;:0,&quot;rounded&quot;:0};" parent="e4eeKu0tLdhdqPBlOCCp-1" vertex="1">
          <mxGeometry x="45" y="60" width="10" height="190" as="geometry" />
        </mxCell>
        <mxCell id="e4eeKu0tLdhdqPBlOCCp-2" value="location: Tecton" style="shape=umlLifeline;perimeter=lifelinePerimeter;whiteSpace=wrap;html=1;container=1;dropTarget=0;collapsible=0;recursiveResize=0;outlineConnect=0;portConstraint=eastwest;newEdgeStyle={&quot;curved&quot;:0,&quot;rounded&quot;:0};" parent="1" vertex="1">
          <mxGeometry x="245" y="40" width="100" height="280" as="geometry" />
        </mxCell>
        <mxCell id="e4eeKu0tLdhdqPBlOCCp-3" value="spore: StunSpore" style="shape=umlLifeline;perimeter=lifelinePerimeter;whiteSpace=wrap;html=1;container=1;dropTarget=0;collapsible=0;recursiveResize=0;outlineConnect=0;portConstraint=eastwest;newEdgeStyle={&quot;curved&quot;:0,&quot;rounded&quot;:0};" parent="1" vertex="1">
          <mxGeometry x="414" y="40" width="100" height="250" as="geometry" />
        </mxCell>
        <mxCell id="e4eeKu0tLdhdqPBlOCCp-11" value="" style="html=1;points=[[0,0,0,0,5],[0,1,0,0,-5],[1,0,0,0,5],[1,1,0,0,-5]];perimeter=orthogonalPerimeter;outlineConnect=0;targetShapes=umlLifeline;portConstraint=eastwest;newEdgeStyle={&quot;curved&quot;:0,&quot;rounded&quot;:0};" parent="e4eeKu0tLdhdqPBlOCCp-3" vertex="1">
          <mxGeometry x="46" y="100" width="10" height="110" as="geometry" />
        </mxCell>
        <mxCell id="e4eeKu0tLdhdqPBlOCCp-4" value="eatSpore()" style="html=1;verticalAlign=bottom;startArrow=circle;startFill=1;endArrow=open;startSize=6;endSize=8;curved=0;rounded=0;" parent="1" target="e4eeKu0tLdhdqPBlOCCp-14" edge="1">
          <mxGeometry width="80" relative="1" as="geometry">
            <mxPoint x="20" y="110" as="sourcePoint" />
            <mxPoint x="130" y="110" as="targetPoint" />
          </mxGeometry>
        </mxCell>
        <mxCell id="e4eeKu0tLdhdqPBlOCCp-8" value="" style="html=1;points=[[0,0,0,0,5],[0,1,0,0,-5],[1,0,0,0,5],[1,1,0,0,-5]];perimeter=orthogonalPerimeter;outlineConnect=0;targetShapes=umlLifeline;portConstraint=eastwest;newEdgeStyle={&quot;curved&quot;:0,&quot;rounded&quot;:0};" parent="1" vertex="1">
          <mxGeometry x="290" y="130" width="10" height="140" as="geometry" />
        </mxCell>
        <mxCell id="e4eeKu0tLdhdqPBlOCCp-9" value="eatSpore(i)" style="html=1;verticalAlign=bottom;endArrow=block;curved=0;rounded=0;entryX=0;entryY=0;entryDx=0;entryDy=5;" parent="1" source="e4eeKu0tLdhdqPBlOCCp-14" target="e4eeKu0tLdhdqPBlOCCp-8" edge="1">
          <mxGeometry relative="1" as="geometry">
            <mxPoint x="220" y="135" as="sourcePoint" />
          </mxGeometry>
        </mxCell>
        <mxCell id="e4eeKu0tLdhdqPBlOCCp-10" value="" style="html=1;verticalAlign=bottom;endArrow=open;dashed=1;endSize=8;curved=0;rounded=0;exitX=0;exitY=1;exitDx=0;exitDy=-5;" parent="1" source="e4eeKu0tLdhdqPBlOCCp-8" target="e4eeKu0tLdhdqPBlOCCp-14" edge="1">
          <mxGeometry relative="1" as="geometry">
            <mxPoint x="220" y="205" as="targetPoint" />
          </mxGeometry>
        </mxCell>
        <mxCell id="e4eeKu0tLdhdqPBlOCCp-13" value="" style="html=1;verticalAlign=bottom;endArrow=open;dashed=1;endSize=8;curved=0;rounded=0;exitX=0;exitY=1;exitDx=0;exitDy=-5;" parent="1" source="e4eeKu0tLdhdqPBlOCCp-11" target="e4eeKu0tLdhdqPBlOCCp-8" edge="1">
          <mxGeometry relative="1" as="geometry">
            <mxPoint x="390" y="215" as="targetPoint" />
          </mxGeometry>
        </mxCell>
        <mxCell id="e4eeKu0tLdhdqPBlOCCp-12" value="eatSpore(i)" style="html=1;verticalAlign=bottom;endArrow=block;curved=0;rounded=0;entryX=0;entryY=0;entryDx=0;entryDy=5;" parent="1" source="e4eeKu0tLdhdqPBlOCCp-8" target="e4eeKu0tLdhdqPBlOCCp-11" edge="1">
          <mxGeometry relative="1" as="geometry">
            <mxPoint x="390" y="145" as="sourcePoint" />
          </mxGeometry>
        </mxCell>
        <mxCell id="e4eeKu0tLdhdqPBlOCCp-15" value="beStunned()" style="html=1;verticalAlign=bottom;endArrow=block;curved=0;rounded=0;" parent="1" source="e4eeKu0tLdhdqPBlOCCp-11" target="e4eeKu0tLdhdqPBlOCCp-14" edge="1">
          <mxGeometry x="0.0031" relative="1" as="geometry">
            <mxPoint x="457.5" y="180" as="sourcePoint" />
            <mxPoint x="132.5" y="180" as="targetPoint" />
            <mxPoint as="offset" />
          </mxGeometry>
        </mxCell>
        <mxCell id="e4eeKu0tLdhdqPBlOCCp-16" value="" style="html=1;verticalAlign=bottom;endArrow=open;dashed=1;endSize=8;curved=0;rounded=0;" parent="1" edge="1">
          <mxGeometry relative="1" as="geometry">
            <mxPoint x="457.5" y="220" as="targetPoint" />
            <mxPoint x="132.5" y="220" as="sourcePoint" />
          </mxGeometry>
        </mxCell>
        <mxCell id="e4eeKu0tLdhdqPBlOCCp-17" value="" style="shape=umlDestroy;whiteSpace=wrap;html=1;strokeWidth=3;targetShapes=umlLifeline;" parent="1" vertex="1">
          <mxGeometry x="449" y="270" width="30" height="30" as="geometry" />
        </mxCell>
      </root>
    </mxGraphModel>
  </diagram>
  <diagram name="EatFastSpore" id="-QN62DAahLfJWlOQvrpE">
    <mxGraphModel dx="1247" dy="727" grid="1" gridSize="10" guides="1" tooltips="1" connect="1" arrows="1" fold="1" page="1" pageScale="1" pageWidth="827" pageHeight="1169" math="0" shadow="0">
      <root>
        <mxCell id="03rtaKB4xk02uRbxNV8t-0" />
        <mxCell id="03rtaKB4xk02uRbxNV8t-1" parent="03rtaKB4xk02uRbxNV8t-0" />
        <mxCell id="03rtaKB4xk02uRbxNV8t-2" value="i: Insect" style="shape=umlLifeline;perimeter=lifelinePerimeter;whiteSpace=wrap;html=1;container=1;dropTarget=0;collapsible=0;recursiveResize=0;outlineConnect=0;portConstraint=eastwest;newEdgeStyle={&quot;curved&quot;:0,&quot;rounded&quot;:0};" vertex="1" parent="03rtaKB4xk02uRbxNV8t-1">
          <mxGeometry x="80" y="40" width="100" height="280" as="geometry" />
        </mxCell>
        <mxCell id="03rtaKB4xk02uRbxNV8t-3" value="" style="html=1;points=[[0,0,0,0,5],[0,1,0,0,-5],[1,0,0,0,5],[1,1,0,0,-5]];perimeter=orthogonalPerimeter;outlineConnect=0;targetShapes=umlLifeline;portConstraint=eastwest;newEdgeStyle={&quot;curved&quot;:0,&quot;rounded&quot;:0};" vertex="1" parent="03rtaKB4xk02uRbxNV8t-2">
          <mxGeometry x="45" y="60" width="10" height="190" as="geometry" />
        </mxCell>
        <mxCell id="03rtaKB4xk02uRbxNV8t-4" value="location: Tecton" style="shape=umlLifeline;perimeter=lifelinePerimeter;whiteSpace=wrap;html=1;container=1;dropTarget=0;collapsible=0;recursiveResize=0;outlineConnect=0;portConstraint=eastwest;newEdgeStyle={&quot;curved&quot;:0,&quot;rounded&quot;:0};" vertex="1" parent="03rtaKB4xk02uRbxNV8t-1">
          <mxGeometry x="245" y="40" width="100" height="280" as="geometry" />
        </mxCell>
        <mxCell id="03rtaKB4xk02uRbxNV8t-5" value="spore: SpeedSpore" style="shape=umlLifeline;perimeter=lifelinePerimeter;whiteSpace=wrap;html=1;container=1;dropTarget=0;collapsible=0;recursiveResize=0;outlineConnect=0;portConstraint=eastwest;newEdgeStyle={&quot;curved&quot;:0,&quot;rounded&quot;:0};" vertex="1" parent="03rtaKB4xk02uRbxNV8t-1">
          <mxGeometry x="414" y="40" width="100" height="240" as="geometry" />
        </mxCell>
        <mxCell id="03rtaKB4xk02uRbxNV8t-6" value="" style="html=1;points=[[0,0,0,0,5],[0,1,0,0,-5],[1,0,0,0,5],[1,1,0,0,-5]];perimeter=orthogonalPerimeter;outlineConnect=0;targetShapes=umlLifeline;portConstraint=eastwest;newEdgeStyle={&quot;curved&quot;:0,&quot;rounded&quot;:0};" vertex="1" parent="03rtaKB4xk02uRbxNV8t-5">
          <mxGeometry x="46" y="100" width="10" height="110" as="geometry" />
        </mxCell>
        <mxCell id="03rtaKB4xk02uRbxNV8t-7" value="eatSpore()" style="html=1;verticalAlign=bottom;startArrow=circle;startFill=1;endArrow=open;startSize=6;endSize=8;curved=0;rounded=0;" edge="1" parent="03rtaKB4xk02uRbxNV8t-1" target="03rtaKB4xk02uRbxNV8t-3">
          <mxGeometry width="80" relative="1" as="geometry">
            <mxPoint x="20" y="110" as="sourcePoint" />
            <mxPoint x="130" y="110" as="targetPoint" />
          </mxGeometry>
        </mxCell>
        <mxCell id="03rtaKB4xk02uRbxNV8t-8" value="" style="html=1;points=[[0,0,0,0,5],[0,1,0,0,-5],[1,0,0,0,5],[1,1,0,0,-5]];perimeter=orthogonalPerimeter;outlineConnect=0;targetShapes=umlLifeline;portConstraint=eastwest;newEdgeStyle={&quot;curved&quot;:0,&quot;rounded&quot;:0};" vertex="1" parent="03rtaKB4xk02uRbxNV8t-1">
          <mxGeometry x="290" y="130" width="10" height="140" as="geometry" />
        </mxCell>
        <mxCell id="03rtaKB4xk02uRbxNV8t-9" value="eatSpore(i)" style="html=1;verticalAlign=bottom;endArrow=block;curved=0;rounded=0;entryX=0;entryY=0;entryDx=0;entryDy=5;" edge="1" parent="03rtaKB4xk02uRbxNV8t-1" source="03rtaKB4xk02uRbxNV8t-3" target="03rtaKB4xk02uRbxNV8t-8">
          <mxGeometry relative="1" as="geometry">
            <mxPoint x="220" y="135" as="sourcePoint" />
          </mxGeometry>
        </mxCell>
        <mxCell id="03rtaKB4xk02uRbxNV8t-10" value="" style="html=1;verticalAlign=bottom;endArrow=open;dashed=1;endSize=8;curved=0;rounded=0;exitX=0;exitY=1;exitDx=0;exitDy=-5;" edge="1" parent="03rtaKB4xk02uRbxNV8t-1" source="03rtaKB4xk02uRbxNV8t-8" target="03rtaKB4xk02uRbxNV8t-3">
          <mxGeometry relative="1" as="geometry">
            <mxPoint x="220" y="205" as="targetPoint" />
          </mxGeometry>
        </mxCell>
        <mxCell id="03rtaKB4xk02uRbxNV8t-11" value="" style="html=1;verticalAlign=bottom;endArrow=open;dashed=1;endSize=8;curved=0;rounded=0;exitX=0;exitY=1;exitDx=0;exitDy=-5;" edge="1" parent="03rtaKB4xk02uRbxNV8t-1" source="03rtaKB4xk02uRbxNV8t-6" target="03rtaKB4xk02uRbxNV8t-8">
          <mxGeometry relative="1" as="geometry">
            <mxPoint x="390" y="215" as="targetPoint" />
          </mxGeometry>
        </mxCell>
        <mxCell id="03rtaKB4xk02uRbxNV8t-12" value="eatSpore(i)" style="html=1;verticalAlign=bottom;endArrow=block;curved=0;rounded=0;entryX=0;entryY=0;entryDx=0;entryDy=5;" edge="1" parent="03rtaKB4xk02uRbxNV8t-1" source="03rtaKB4xk02uRbxNV8t-8" target="03rtaKB4xk02uRbxNV8t-6">
          <mxGeometry relative="1" as="geometry">
            <mxPoint x="390" y="145" as="sourcePoint" />
          </mxGeometry>
        </mxCell>
        <mxCell id="03rtaKB4xk02uRbxNV8t-13" value="beFast&lt;span style=&quot;background-color: light-dark(#ffffff, var(--ge-dark-color, #121212)); color: light-dark(rgb(0, 0, 0), rgb(255, 255, 255));&quot;&gt;()&lt;/span&gt;" style="html=1;verticalAlign=bottom;endArrow=block;curved=0;rounded=0;" edge="1" parent="03rtaKB4xk02uRbxNV8t-1" source="03rtaKB4xk02uRbxNV8t-6" target="03rtaKB4xk02uRbxNV8t-3">
          <mxGeometry x="0.0031" relative="1" as="geometry">
            <mxPoint x="457.5" y="180" as="sourcePoint" />
            <mxPoint x="132.5" y="180" as="targetPoint" />
            <mxPoint as="offset" />
          </mxGeometry>
        </mxCell>
        <mxCell id="03rtaKB4xk02uRbxNV8t-14" value="" style="html=1;verticalAlign=bottom;endArrow=open;dashed=1;endSize=8;curved=0;rounded=0;" edge="1" parent="03rtaKB4xk02uRbxNV8t-1">
          <mxGeometry relative="1" as="geometry">
            <mxPoint x="457.5" y="220" as="targetPoint" />
            <mxPoint x="132.5" y="220" as="sourcePoint" />
          </mxGeometry>
        </mxCell>
        <mxCell id="03rtaKB4xk02uRbxNV8t-15" value="" style="shape=umlDestroy;whiteSpace=wrap;html=1;strokeWidth=3;targetShapes=umlLifeline;" vertex="1" parent="03rtaKB4xk02uRbxNV8t-1">
          <mxGeometry x="449" y="270" width="30" height="30" as="geometry" />
        </mxCell>
      </root>
    </mxGraphModel>
  </diagram>
  <diagram name="EatSlowSpore" id="X_UaYURgvzXdNyPGNeUf">
    <mxGraphModel dx="989" dy="577" grid="1" gridSize="10" guides="1" tooltips="1" connect="1" arrows="1" fold="1" page="1" pageScale="1" pageWidth="827" pageHeight="1169" math="0" shadow="0">
      <root>
        <mxCell id="sL_gk0zcLYPHCE3IpuIT-0" />
        <mxCell id="sL_gk0zcLYPHCE3IpuIT-1" parent="sL_gk0zcLYPHCE3IpuIT-0" />
        <mxCell id="sL_gk0zcLYPHCE3IpuIT-2" value="i: Insect" style="shape=umlLifeline;perimeter=lifelinePerimeter;whiteSpace=wrap;html=1;container=1;dropTarget=0;collapsible=0;recursiveResize=0;outlineConnect=0;portConstraint=eastwest;newEdgeStyle={&quot;curved&quot;:0,&quot;rounded&quot;:0};" vertex="1" parent="sL_gk0zcLYPHCE3IpuIT-1">
          <mxGeometry x="80" y="40" width="100" height="280" as="geometry" />
        </mxCell>
        <mxCell id="sL_gk0zcLYPHCE3IpuIT-3" value="" style="html=1;points=[[0,0,0,0,5],[0,1,0,0,-5],[1,0,0,0,5],[1,1,0,0,-5]];perimeter=orthogonalPerimeter;outlineConnect=0;targetShapes=umlLifeline;portConstraint=eastwest;newEdgeStyle={&quot;curved&quot;:0,&quot;rounded&quot;:0};" vertex="1" parent="sL_gk0zcLYPHCE3IpuIT-2">
          <mxGeometry x="45" y="60" width="10" height="190" as="geometry" />
        </mxCell>
        <mxCell id="sL_gk0zcLYPHCE3IpuIT-4" value="location: Tecton" style="shape=umlLifeline;perimeter=lifelinePerimeter;whiteSpace=wrap;html=1;container=1;dropTarget=0;collapsible=0;recursiveResize=0;outlineConnect=0;portConstraint=eastwest;newEdgeStyle={&quot;curved&quot;:0,&quot;rounded&quot;:0};" vertex="1" parent="sL_gk0zcLYPHCE3IpuIT-1">
          <mxGeometry x="245" y="40" width="100" height="280" as="geometry" />
        </mxCell>
        <mxCell id="sL_gk0zcLYPHCE3IpuIT-5" value="spore: SlownessSpore" style="shape=umlLifeline;perimeter=lifelinePerimeter;whiteSpace=wrap;html=1;container=1;dropTarget=0;collapsible=0;recursiveResize=0;outlineConnect=0;portConstraint=eastwest;newEdgeStyle={&quot;curved&quot;:0,&quot;rounded&quot;:0};" vertex="1" parent="sL_gk0zcLYPHCE3IpuIT-1">
          <mxGeometry x="414" y="40" width="100" height="250" as="geometry" />
        </mxCell>
        <mxCell id="sL_gk0zcLYPHCE3IpuIT-6" value="" style="html=1;points=[[0,0,0,0,5],[0,1,0,0,-5],[1,0,0,0,5],[1,1,0,0,-5]];perimeter=orthogonalPerimeter;outlineConnect=0;targetShapes=umlLifeline;portConstraint=eastwest;newEdgeStyle={&quot;curved&quot;:0,&quot;rounded&quot;:0};" vertex="1" parent="sL_gk0zcLYPHCE3IpuIT-5">
          <mxGeometry x="46" y="100" width="10" height="110" as="geometry" />
        </mxCell>
        <mxCell id="sL_gk0zcLYPHCE3IpuIT-7" value="eatSpore()" style="html=1;verticalAlign=bottom;startArrow=circle;startFill=1;endArrow=open;startSize=6;endSize=8;curved=0;rounded=0;" edge="1" parent="sL_gk0zcLYPHCE3IpuIT-1" target="sL_gk0zcLYPHCE3IpuIT-3">
          <mxGeometry width="80" relative="1" as="geometry">
            <mxPoint x="20" y="110" as="sourcePoint" />
            <mxPoint x="130" y="110" as="targetPoint" />
          </mxGeometry>
        </mxCell>
        <mxCell id="sL_gk0zcLYPHCE3IpuIT-8" value="" style="html=1;points=[[0,0,0,0,5],[0,1,0,0,-5],[1,0,0,0,5],[1,1,0,0,-5]];perimeter=orthogonalPerimeter;outlineConnect=0;targetShapes=umlLifeline;portConstraint=eastwest;newEdgeStyle={&quot;curved&quot;:0,&quot;rounded&quot;:0};" vertex="1" parent="sL_gk0zcLYPHCE3IpuIT-1">
          <mxGeometry x="290" y="130" width="10" height="140" as="geometry" />
        </mxCell>
        <mxCell id="sL_gk0zcLYPHCE3IpuIT-9" value="eatSpore(i)" style="html=1;verticalAlign=bottom;endArrow=block;curved=0;rounded=0;entryX=0;entryY=0;entryDx=0;entryDy=5;" edge="1" parent="sL_gk0zcLYPHCE3IpuIT-1" source="sL_gk0zcLYPHCE3IpuIT-3" target="sL_gk0zcLYPHCE3IpuIT-8">
          <mxGeometry relative="1" as="geometry">
            <mxPoint x="220" y="135" as="sourcePoint" />
          </mxGeometry>
        </mxCell>
        <mxCell id="sL_gk0zcLYPHCE3IpuIT-10" value="" style="html=1;verticalAlign=bottom;endArrow=open;dashed=1;endSize=8;curved=0;rounded=0;exitX=0;exitY=1;exitDx=0;exitDy=-5;" edge="1" parent="sL_gk0zcLYPHCE3IpuIT-1" source="sL_gk0zcLYPHCE3IpuIT-8" target="sL_gk0zcLYPHCE3IpuIT-3">
          <mxGeometry relative="1" as="geometry">
            <mxPoint x="220" y="205" as="targetPoint" />
          </mxGeometry>
        </mxCell>
        <mxCell id="sL_gk0zcLYPHCE3IpuIT-11" value="" style="html=1;verticalAlign=bottom;endArrow=open;dashed=1;endSize=8;curved=0;rounded=0;exitX=0;exitY=1;exitDx=0;exitDy=-5;" edge="1" parent="sL_gk0zcLYPHCE3IpuIT-1" source="sL_gk0zcLYPHCE3IpuIT-6" target="sL_gk0zcLYPHCE3IpuIT-8">
          <mxGeometry relative="1" as="geometry">
            <mxPoint x="390" y="215" as="targetPoint" />
          </mxGeometry>
        </mxCell>
        <mxCell id="sL_gk0zcLYPHCE3IpuIT-12" value="eatSpore(i)" style="html=1;verticalAlign=bottom;endArrow=block;curved=0;rounded=0;entryX=0;entryY=0;entryDx=0;entryDy=5;" edge="1" parent="sL_gk0zcLYPHCE3IpuIT-1" source="sL_gk0zcLYPHCE3IpuIT-8" target="sL_gk0zcLYPHCE3IpuIT-6">
          <mxGeometry relative="1" as="geometry">
            <mxPoint x="390" y="145" as="sourcePoint" />
          </mxGeometry>
        </mxCell>
        <mxCell id="sL_gk0zcLYPHCE3IpuIT-13" value="beSlow()" style="html=1;verticalAlign=bottom;endArrow=block;curved=0;rounded=0;" edge="1" parent="sL_gk0zcLYPHCE3IpuIT-1" source="sL_gk0zcLYPHCE3IpuIT-6" target="sL_gk0zcLYPHCE3IpuIT-3">
          <mxGeometry x="0.0031" relative="1" as="geometry">
            <mxPoint x="457.5" y="180" as="sourcePoint" />
            <mxPoint x="132.5" y="180" as="targetPoint" />
            <mxPoint as="offset" />
          </mxGeometry>
        </mxCell>
        <mxCell id="sL_gk0zcLYPHCE3IpuIT-14" value="" style="html=1;verticalAlign=bottom;endArrow=open;dashed=1;endSize=8;curved=0;rounded=0;" edge="1" parent="sL_gk0zcLYPHCE3IpuIT-1">
          <mxGeometry relative="1" as="geometry">
            <mxPoint x="457.5" y="220" as="targetPoint" />
            <mxPoint x="132.5" y="220" as="sourcePoint" />
          </mxGeometry>
        </mxCell>
        <mxCell id="sL_gk0zcLYPHCE3IpuIT-15" value="" style="shape=umlDestroy;whiteSpace=wrap;html=1;strokeWidth=3;targetShapes=umlLifeline;" vertex="1" parent="sL_gk0zcLYPHCE3IpuIT-1">
          <mxGeometry x="449" y="270" width="30" height="30" as="geometry" />
        </mxCell>
      </root>
    </mxGraphModel>
  </diagram>
  <diagram name="EatCannotCutSpore" id="ClXC-08mPH2KSmgQPazf">
    <mxGraphModel dx="989" dy="577" grid="1" gridSize="10" guides="1" tooltips="1" connect="1" arrows="1" fold="1" page="1" pageScale="1" pageWidth="827" pageHeight="1169" math="0" shadow="0">
      <root>
        <mxCell id="JvzJ1yX0QGIERUDQmvE5-0" />
        <mxCell id="JvzJ1yX0QGIERUDQmvE5-1" parent="JvzJ1yX0QGIERUDQmvE5-0" />
        <mxCell id="JvzJ1yX0QGIERUDQmvE5-2" value="i: Insect" style="shape=umlLifeline;perimeter=lifelinePerimeter;whiteSpace=wrap;html=1;container=1;dropTarget=0;collapsible=0;recursiveResize=0;outlineConnect=0;portConstraint=eastwest;newEdgeStyle={&quot;curved&quot;:0,&quot;rounded&quot;:0};" vertex="1" parent="JvzJ1yX0QGIERUDQmvE5-1">
          <mxGeometry x="80" y="40" width="100" height="280" as="geometry" />
        </mxCell>
        <mxCell id="JvzJ1yX0QGIERUDQmvE5-3" value="" style="html=1;points=[[0,0,0,0,5],[0,1,0,0,-5],[1,0,0,0,5],[1,1,0,0,-5]];perimeter=orthogonalPerimeter;outlineConnect=0;targetShapes=umlLifeline;portConstraint=eastwest;newEdgeStyle={&quot;curved&quot;:0,&quot;rounded&quot;:0};" vertex="1" parent="JvzJ1yX0QGIERUDQmvE5-2">
          <mxGeometry x="45" y="60" width="10" height="190" as="geometry" />
        </mxCell>
        <mxCell id="JvzJ1yX0QGIERUDQmvE5-4" value="location: Tecton" style="shape=umlLifeline;perimeter=lifelinePerimeter;whiteSpace=wrap;html=1;container=1;dropTarget=0;collapsible=0;recursiveResize=0;outlineConnect=0;portConstraint=eastwest;newEdgeStyle={&quot;curved&quot;:0,&quot;rounded&quot;:0};" vertex="1" parent="JvzJ1yX0QGIERUDQmvE5-1">
          <mxGeometry x="245" y="40" width="100" height="280" as="geometry" />
        </mxCell>
        <mxCell id="JvzJ1yX0QGIERUDQmvE5-5" value="spore: PreventCutSpore" style="shape=umlLifeline;perimeter=lifelinePerimeter;whiteSpace=wrap;html=1;container=1;dropTarget=0;collapsible=0;recursiveResize=0;outlineConnect=0;portConstraint=eastwest;newEdgeStyle={&quot;curved&quot;:0,&quot;rounded&quot;:0};" vertex="1" parent="JvzJ1yX0QGIERUDQmvE5-1">
          <mxGeometry x="414" y="40" width="100" height="250" as="geometry" />
        </mxCell>
        <mxCell id="JvzJ1yX0QGIERUDQmvE5-6" value="" style="html=1;points=[[0,0,0,0,5],[0,1,0,0,-5],[1,0,0,0,5],[1,1,0,0,-5]];perimeter=orthogonalPerimeter;outlineConnect=0;targetShapes=umlLifeline;portConstraint=eastwest;newEdgeStyle={&quot;curved&quot;:0,&quot;rounded&quot;:0};" vertex="1" parent="JvzJ1yX0QGIERUDQmvE5-5">
          <mxGeometry x="46" y="100" width="10" height="110" as="geometry" />
        </mxCell>
        <mxCell id="JvzJ1yX0QGIERUDQmvE5-7" value="eatSpore()" style="html=1;verticalAlign=bottom;startArrow=circle;startFill=1;endArrow=open;startSize=6;endSize=8;curved=0;rounded=0;" edge="1" parent="JvzJ1yX0QGIERUDQmvE5-1" target="JvzJ1yX0QGIERUDQmvE5-3">
          <mxGeometry width="80" relative="1" as="geometry">
            <mxPoint x="20" y="110" as="sourcePoint" />
            <mxPoint x="130" y="110" as="targetPoint" />
          </mxGeometry>
        </mxCell>
        <mxCell id="JvzJ1yX0QGIERUDQmvE5-8" value="" style="html=1;points=[[0,0,0,0,5],[0,1,0,0,-5],[1,0,0,0,5],[1,1,0,0,-5]];perimeter=orthogonalPerimeter;outlineConnect=0;targetShapes=umlLifeline;portConstraint=eastwest;newEdgeStyle={&quot;curved&quot;:0,&quot;rounded&quot;:0};" vertex="1" parent="JvzJ1yX0QGIERUDQmvE5-1">
          <mxGeometry x="290" y="130" width="10" height="140" as="geometry" />
        </mxCell>
        <mxCell id="JvzJ1yX0QGIERUDQmvE5-9" value="eatSpore(i)" style="html=1;verticalAlign=bottom;endArrow=block;curved=0;rounded=0;entryX=0;entryY=0;entryDx=0;entryDy=5;" edge="1" parent="JvzJ1yX0QGIERUDQmvE5-1" source="JvzJ1yX0QGIERUDQmvE5-3" target="JvzJ1yX0QGIERUDQmvE5-8">
          <mxGeometry relative="1" as="geometry">
            <mxPoint x="220" y="135" as="sourcePoint" />
          </mxGeometry>
        </mxCell>
        <mxCell id="JvzJ1yX0QGIERUDQmvE5-10" value="" style="html=1;verticalAlign=bottom;endArrow=open;dashed=1;endSize=8;curved=0;rounded=0;exitX=0;exitY=1;exitDx=0;exitDy=-5;" edge="1" parent="JvzJ1yX0QGIERUDQmvE5-1" source="JvzJ1yX0QGIERUDQmvE5-8" target="JvzJ1yX0QGIERUDQmvE5-3">
          <mxGeometry relative="1" as="geometry">
            <mxPoint x="220" y="205" as="targetPoint" />
          </mxGeometry>
        </mxCell>
        <mxCell id="JvzJ1yX0QGIERUDQmvE5-11" value="" style="html=1;verticalAlign=bottom;endArrow=open;dashed=1;endSize=8;curved=0;rounded=0;exitX=0;exitY=1;exitDx=0;exitDy=-5;" edge="1" parent="JvzJ1yX0QGIERUDQmvE5-1" source="JvzJ1yX0QGIERUDQmvE5-6" target="JvzJ1yX0QGIERUDQmvE5-8">
          <mxGeometry relative="1" as="geometry">
            <mxPoint x="390" y="215" as="targetPoint" />
          </mxGeometry>
        </mxCell>
        <mxCell id="JvzJ1yX0QGIERUDQmvE5-12" value="eatSpore(i)" style="html=1;verticalAlign=bottom;endArrow=block;curved=0;rounded=0;entryX=0;entryY=0;entryDx=0;entryDy=5;" edge="1" parent="JvzJ1yX0QGIERUDQmvE5-1" source="JvzJ1yX0QGIERUDQmvE5-8" target="JvzJ1yX0QGIERUDQmvE5-6">
          <mxGeometry relative="1" as="geometry">
            <mxPoint x="390" y="145" as="sourcePoint" />
          </mxGeometry>
        </mxCell>
        <mxCell id="JvzJ1yX0QGIERUDQmvE5-13" value="preventCut()" style="html=1;verticalAlign=bottom;endArrow=block;curved=0;rounded=0;" edge="1" parent="JvzJ1yX0QGIERUDQmvE5-1" source="JvzJ1yX0QGIERUDQmvE5-6" target="JvzJ1yX0QGIERUDQmvE5-3">
          <mxGeometry x="0.0031" relative="1" as="geometry">
            <mxPoint x="457.5" y="180" as="sourcePoint" />
            <mxPoint x="132.5" y="180" as="targetPoint" />
            <mxPoint as="offset" />
          </mxGeometry>
        </mxCell>
        <mxCell id="JvzJ1yX0QGIERUDQmvE5-14" value="" style="html=1;verticalAlign=bottom;endArrow=open;dashed=1;endSize=8;curved=0;rounded=0;" edge="1" parent="JvzJ1yX0QGIERUDQmvE5-1">
          <mxGeometry relative="1" as="geometry">
            <mxPoint x="457.5" y="220" as="targetPoint" />
            <mxPoint x="132.5" y="220" as="sourcePoint" />
          </mxGeometry>
        </mxCell>
        <mxCell id="JvzJ1yX0QGIERUDQmvE5-15" value="" style="shape=umlDestroy;whiteSpace=wrap;html=1;strokeWidth=3;targetShapes=umlLifeline;" vertex="1" parent="JvzJ1yX0QGIERUDQmvE5-1">
          <mxGeometry x="449" y="270" width="30" height="30" as="geometry" />
        </mxCell>
      </root>
    </mxGraphModel>
  </diagram>
  <diagram id="Me7Cve2SlcodZ-H2shCZ" name="TectonBreak">
    <mxGraphModel dx="989" dy="577" grid="1" gridSize="10" guides="1" tooltips="1" connect="1" arrows="1" fold="1" page="1" pageScale="1" pageWidth="827" pageHeight="1169" math="0" shadow="0">
      <root>
        <mxCell id="0" />
        <mxCell id="1" parent="0" />
        <mxCell id="YlLJiEQLBlc2-0UvBNMx-1" value="t: Tecton" style="shape=umlLifeline;perimeter=lifelinePerimeter;whiteSpace=wrap;html=1;container=1;dropTarget=0;collapsible=0;recursiveResize=0;outlineConnect=0;portConstraint=eastwest;newEdgeStyle={&quot;curved&quot;:0,&quot;rounded&quot;:0};" vertex="1" parent="1">
          <mxGeometry x="150" y="120" width="100" height="320" as="geometry" />
        </mxCell>
        <mxCell id="YlLJiEQLBlc2-0UvBNMx-2" value="" style="html=1;points=[[0,0,0,0,5],[0,1,0,0,-5],[1,0,0,0,5],[1,1,0,0,-5]];perimeter=orthogonalPerimeter;outlineConnect=0;targetShapes=umlLifeline;portConstraint=eastwest;newEdgeStyle={&quot;curved&quot;:0,&quot;rounded&quot;:0};" vertex="1" parent="YlLJiEQLBlc2-0UvBNMx-1">
          <mxGeometry x="45" y="80" width="10" height="210" as="geometry" />
        </mxCell>
        <mxCell id="YlLJiEQLBlc2-0UvBNMx-3" value="onRoundBegin()" style="html=1;verticalAlign=bottom;startArrow=oval;endArrow=block;startSize=8;curved=0;rounded=0;entryX=0;entryY=0;entryDx=0;entryDy=5;fontSize=12;" edge="1" parent="YlLJiEQLBlc2-0UvBNMx-1" target="YlLJiEQLBlc2-0UvBNMx-2">
          <mxGeometry relative="1" as="geometry">
            <mxPoint x="-70" y="85" as="sourcePoint" />
          </mxGeometry>
        </mxCell>
        <mxCell id="YlLJiEQLBlc2-0UvBNMx-4" value="Mycelia[i]: Mycelium" style="shape=umlLifeline;perimeter=lifelinePerimeter;whiteSpace=wrap;html=1;container=1;dropTarget=0;collapsible=0;recursiveResize=0;outlineConnect=0;portConstraint=eastwest;newEdgeStyle={&quot;curved&quot;:0,&quot;rounded&quot;:0};" vertex="1" parent="1">
          <mxGeometry x="310" y="120" width="120" height="320" as="geometry" />
        </mxCell>
        <mxCell id="YlLJiEQLBlc2-0UvBNMx-5" value="" style="html=1;points=[[0,0,0,0,5],[0,1,0,0,-5],[1,0,0,0,5],[1,1,0,0,-5]];perimeter=orthogonalPerimeter;outlineConnect=0;targetShapes=umlLifeline;portConstraint=eastwest;newEdgeStyle={&quot;curved&quot;:0,&quot;rounded&quot;:0};" vertex="1" parent="YlLJiEQLBlc2-0UvBNMx-4">
          <mxGeometry x="55" y="125" width="10" height="80" as="geometry" />
        </mxCell>
        <mxCell id="YlLJiEQLBlc2-0UvBNMx-6" value="loop" style="shape=umlFrame;whiteSpace=wrap;html=1;pointerEvents=0;" vertex="1" parent="1">
          <mxGeometry x="130" y="230" width="260" height="110" as="geometry" />
        </mxCell>
        <mxCell id="YlLJiEQLBlc2-0UvBNMx-7" value="[Mycelia]" style="text;html=1;align=center;verticalAlign=middle;resizable=0;points=[];autosize=1;strokeColor=none;fillColor=none;" vertex="1" parent="1">
          <mxGeometry x="130" y="260" width="70" height="30" as="geometry" />
        </mxCell>
        <mxCell id="YlLJiEQLBlc2-0UvBNMx-10" value="cut()" style="html=1;verticalAlign=bottom;endArrow=block;curved=0;rounded=0;entryX=0;entryY=0;entryDx=0;entryDy=5;fontSize=12;" edge="1" parent="1" source="YlLJiEQLBlc2-0UvBNMx-2" target="YlLJiEQLBlc2-0UvBNMx-5">
          <mxGeometry relative="1" as="geometry">
            <mxPoint x="230" y="250" as="sourcePoint" />
            <mxPoint as="offset" />
          </mxGeometry>
        </mxCell>
        <mxCell id="YlLJiEQLBlc2-0UvBNMx-11" value="" style="html=1;verticalAlign=bottom;endArrow=open;dashed=1;endSize=8;curved=0;rounded=0;exitX=0;exitY=1;exitDx=0;exitDy=-5;" edge="1" parent="1" source="YlLJiEQLBlc2-0UvBNMx-5" target="YlLJiEQLBlc2-0UvBNMx-2">
          <mxGeometry relative="1" as="geometry">
            <mxPoint x="195" y="314.9999999999999" as="targetPoint" />
          </mxGeometry>
        </mxCell>
        <mxCell id="YlLJiEQLBlc2-0UvBNMx-12" value="TektontÃ¶rÃ©s esetÃ©n a kettÃ©tÃ¶rt tektonon talÃ¡lhatÃ³ Ã¶sszes gombafonÃ¡l elszakad." style="shape=note;size=20;whiteSpace=wrap;html=1;fontColor=#000000;labelBackgroundColor=none;" vertex="1" parent="1">
          <mxGeometry x="560" y="220" width="230" height="70" as="geometry" />
        </mxCell>
        <mxCell id="YlLJiEQLBlc2-0UvBNMx-13" value="newt: Tecton" style="shape=umlLifeline;perimeter=lifelinePerimeter;whiteSpace=wrap;html=1;container=1;dropTarget=0;collapsible=0;recursiveResize=0;outlineConnect=0;portConstraint=eastwest;newEdgeStyle={&quot;curved&quot;:0,&quot;rounded&quot;:0};" vertex="1" parent="1">
          <mxGeometry x="440" y="340" width="100" height="100" as="geometry" />
        </mxCell>
        <mxCell id="YlLJiEQLBlc2-0UvBNMx-14" value="Create" style="endArrow=open;endSize=12;dashed=1;html=1;rounded=0;" edge="1" parent="1" source="YlLJiEQLBlc2-0UvBNMx-2">
          <mxGeometry width="160" relative="1" as="geometry">
            <mxPoint x="280" y="360" as="sourcePoint" />
            <mxPoint x="440" y="360" as="targetPoint" />
          </mxGeometry>
        </mxCell>
        <mxCell id="YlLJiEQLBlc2-0UvBNMx-15" value="opt" style="shape=umlFrame;whiteSpace=wrap;html=1;pointerEvents=0;" vertex="1" parent="1">
          <mxGeometry x="30" y="220" width="520" height="170" as="geometry" />
        </mxCell>
        <mxCell id="YlLJiEQLBlc2-0UvBNMx-17" value="[timeToKill==0]" style="text;html=1;align=center;verticalAlign=middle;resizable=0;points=[];autosize=1;strokeColor=none;fillColor=none;" vertex="1" parent="1">
          <mxGeometry x="30" y="250" width="100" height="30" as="geometry" />
        </mxCell>
        <mxCell id="AXWDVh71gm9d55ClFcVh-2" value="Konstruktorban megkapja az eredetit, Ã©s hozzÃ¡adja a szomszÃ©djaihoz (ez lesz az egyetlen szomszÃ©dja); Az eredeti is hozzÃ¡adja az Ãºjat a szomszÃ©djaihoz" style="shape=note;size=20;whiteSpace=wrap;html=1;" vertex="1" parent="1">
          <mxGeometry x="560" y="300" width="230" height="100" as="geometry" />
        </mxCell>
        <mxCell id="AXWDVh71gm9d55ClFcVh-3" value="&lt;b style=&quot;color: rgb(255, 51, 51); font-size: 18px; background-color: transparent;&quot;&gt;! ROVARTELEPORT !&lt;/b&gt;&lt;div&gt;&lt;b style=&quot;color: rgb(255, 51, 51); font-size: 18px; background-color: transparent;&quot;&gt;! MYCELIUM SUSTAINCHECK !&lt;/b&gt;&lt;/div&gt;" style="shape=note;size=20;whiteSpace=wrap;html=1;align=center;" vertex="1" parent="1">
          <mxGeometry x="460" y="90" width="290" height="90" as="geometry" />
        </mxCell>
      </root>
    </mxGraphModel>
  </diagram>
</mxfile>
